<svg width="1440" height="612" fill="none" xmlns="http://www.w3.org/2000/svg"><g opacity=".9"><path d="M599.696 31.238h-.001C416.849 53.615 229.293 76.568-3 56.633V81h3v506.633s323.5 54.5 720 0 720 0 720 0V81h-3V56.633C1096.35-29.544 852.528.296 599.696 31.238Z" fill="#fff"/><path d="M599.696 31.238h-.001C416.849 53.615 229.293 76.568-3 56.633V81h3v506.633s323.5 54.5 720 0 720 0 720 0V81h-3V56.633C1096.35-29.544 852.528.296 599.696 31.238Z" fill="url(#a)"/></g><defs><linearGradient id="a" x1="1529.5" y1="0" x2="446.531" y2="-471.36" gradientUnits="userSpaceOnUse"><stop/><stop offset=".461" stop-color="#2B2B2B"/><stop offset=".886"/></linearGradient></defs></svg>