<svg width="1440" height="495" fill="none" xmlns="http://www.w3.org/2000/svg"><g opacity=".9" filter="url(#a)"><path d="M1440 0H0v391.953c161.532 59.599 443.793 37.254 773.63 11.143h.002l.011-.001c46.894-3.713 94.75-7.501 143.357-11.141C1313.5 339.701 1440 487 1440 487V0Z" fill="url(#b)"/><path d="M773.593 402.597h-.002c-164.924 13.057-317.93 25.169-449.896 26.569C191.898 430.564 81.148 421.275.5 391.605V.5h1439v485.206c-.19-.202-.41-.433-.66-.694a116.73 116.73 0 0 0-4.71-4.606c-4.25-3.939-10.75-9.502-19.8-16.011-18.09-13.018-46.33-29.819-86.97-44.981-81.27-30.326-212.1-54.09-410.412-27.958-48.603 3.64-96.455 7.428-143.344 11.14l-.011.001Z" stroke="#000"/></g><defs><linearGradient id="b" x1="1440" y1="0" x2="-72.5" y2="487" gradientUnits="userSpaceOnUse"><stop/><stop offset=".461" stop-color="#2B2B2B"/><stop offset=".886"/></linearGradient><filter id="a" x="-4" y="0" width="1448" height="495" filterUnits="userSpaceOnUse" color-interpolation-filters="sRGB"><feFlood flood-opacity="0" result="BackgroundImageFix"/><feColorMatrix in="SourceAlpha" values="0 0 0 0 0 0 0 0 0 0 0 0 0 0 0 0 0 0 127 0" result="hardAlpha"/><feOffset dy="4"/><feGaussianBlur stdDeviation="2"/><feComposite in2="hardAlpha" operator="out"/><feColorMatrix values="0 0 0 0 0 0 0 0 0 0 0 0 0 0 0 0 0 0 0.25 0"/><feBlend in2="BackgroundImageFix" result="effect1_dropShadow_1_45"/><feBlend in="SourceGraphic" in2="effect1_dropShadow_1_45" result="shape"/></filter></defs></svg>