<svg width="206" height="35" fill="none" xmlns="http://www.w3.org/2000/svg"><g opacity=".3" clip-path="url(#a)" fill="#fff"><path d="M68.388.432h-5.534v24.673h5.534V.432Zm73.572 0h-5.534v24.673h5.534V.432ZM0 21.518l3.25-3.845c2.24 1.815 4.612 2.981 7.467 2.981 2.24 0 3.602-.864 3.602-2.333v-.086c0-1.383-.879-2.075-5.051-3.155C4.217 13.827.966 12.444.966 7.52v-.087C.966 2.938 4.612 0 9.751 0c3.646 0 6.764 1.123 9.312 3.154L16.208 7.26c-2.24-1.512-4.393-2.42-6.501-2.42-2.108 0-3.206.951-3.206 2.161v.086c0 1.642 1.054 2.16 5.402 3.241 5.095 1.296 7.95 3.111 7.95 7.389v.086c0 4.883-3.777 7.649-9.224 7.649-3.777 0-7.598-1.297-10.629-3.933Z"/><path d="M83.981.26h-5.095L68.125 25.104h5.666l2.284-5.53 1.977-4.797 3.294-7.994 3.338 7.994-2.108 4.796h4.085l2.284 5.531h5.797L83.982.259Zm59.253.172h5.095l11.771 15.21V.432l5.447-.13v24.803h-4.7L148.68 9.42v15.685l-5.402.173-.044-24.846Z"/><path d="m165.02 21.778 3.47-3.803c1.449 1.556 2.811 2.463 4.568 2.463 2.064 0 3.382-1.253 3.382-4.105V.433l5.666-.13v16.29c0 2.938-.879 5.098-2.372 6.61-1.537 1.513-3.778 2.29-6.501 2.29-3.909-.042-6.5-1.728-8.213-3.715Z"/><path d="M194.887.26h-5.095l-10.761 24.845h5.622l2.284-5.53 1.977-4.797 3.338-7.994 3.338 7.994-2.108 4.796h4.085l2.284 5.531h5.754L194.887.259ZM59.472 17.63c-1.977 1.771-3.733 2.895-6.589 2.895-4.304 0-7.29-3.543-7.29-7.735v-.086c0-4.235 3.03-7.692 7.29-7.692 2.504 0 4.48 1.037 6.413 2.766l3.514-3.976C60.482 1.556 57.671 0 52.927 0c-5.095 0-9.18 2.506-11.332 6.265a11.18 11.18 0 0 1 2.065 6.482c0 2.42-.791 4.667-2.109 6.525 2.153 3.759 6.237 6.222 11.157 6.222 4.831 0 7.686-1.685 10.278-4.408l-3.514-3.456ZM129.705.432v15.21L117.978.432h-5.095v14.26l5.446 10.283V9.42l12.123 15.685h4.7V.432h-5.447Zm-19.633 19.747h-9.664l.044-19.877H95.05l-.132 24.803h17.745l-2.591-4.926Z"/><g clip-path="url(#b)"><path d="M22.81 10.933a2.575 2.575 0 0 0-.9.925 2.498 2.498 0 0 0 0 2.47c.214.377.524.696.9.925a8.562 8.562 0 0 0 3.13 4.625 8.93 8.93 0 0 0 5.375 1.79 8.93 8.93 0 0 0 5.375-1.79 8.562 8.562 0 0 0 3.13-4.625c.376-.228.687-.546.903-.924a2.494 2.494 0 0 0 0-2.472 2.571 2.571 0 0 0-.904-.924 8.562 8.562 0 0 0-3.129-4.625 8.93 8.93 0 0 0-5.375-1.791 8.93 8.93 0 0 0-5.376 1.79 8.562 8.562 0 0 0-3.13 4.626Zm8.539 9.382a7.101 7.101 0 0 1-4.122-1.273 6.824 6.824 0 0 1-2.562-3.398h13.331a6.712 6.712 0 0 1-2.532 3.408 6.99 6.99 0 0 1-4.115 1.263Zm-4.898-7.217a1.271 1.271 0 0 1 .22-.72 1.32 1.32 0 0 1 .594-.479 1.357 1.357 0 0 1 1.446.275 1.265 1.265 0 0 1 .293 1.409c-.1.237-.268.44-.486.583a1.35 1.35 0 0 1-1.677-.157 1.293 1.293 0 0 1-.39-.916v.005Zm7.075 0c-.001-.258.076-.51.222-.724a1.32 1.32 0 0 1 .598-.48 1.363 1.363 0 0 1 1.453.28 1.27 1.27 0 0 1 .288 1.418c-.102.238-.273.44-.493.583a1.356 1.356 0 0 1-1.25.118 1.329 1.329 0 0 1-.431-.282 1.293 1.293 0 0 1-.387-.918v.005Zm4.444-2.552H24.612a6.712 6.712 0 0 1 2.534-3.43A6.988 6.988 0 0 1 31.28 5.85a7.111 7.111 0 0 1 4.129 1.282 6.834 6.834 0 0 1 2.561 3.409v.005Z"/><path d="M18.8 13.093v.067c0 6.531 5.215 11.815 12.48 11.815 7.266 0 12.555-5.35 12.555-11.857v-.067c0-6.557-5.215-11.841-12.486-11.841-7.271 0-12.55 5.351-12.55 11.883Zm23.387 0c0 2.098-.638 4.15-1.833 5.895a10.821 10.821 0 0 1-4.882 3.907 11.128 11.128 0 0 1-6.284.603 10.96 10.96 0 0 1-5.567-2.905 10.53 10.53 0 0 1-2.976-5.434 10.37 10.37 0 0 1 .622-6.13 10.671 10.671 0 0 1 4.007-4.76 11.07 11.07 0 0 1 6.043-1.786A11.025 11.025 0 0 1 39 5.596a10.49 10.49 0 0 1 3.187 7.497Z"/></g><path d="M112.839 27.18h2.987c.527 0 1.01.085 1.493.302a4.07 4.07 0 0 1 1.23.82c.351.346.615.778.834 1.21.22.476.308.951.308 1.47 0 .518-.088.993-.308 1.469-.175.475-.483.864-.834 1.21a4.188 4.188 0 0 1-1.23.864 3.55 3.55 0 0 1-1.493.302h-2.987V27.18Zm2.02 6.005h.483c.352 0 .659-.043.923-.173.263-.13.527-.259.703-.432.175-.172.351-.432.439-.691a2.74 2.74 0 0 0 .132-.864c0-.303-.044-.605-.176-.864-.088-.26-.264-.476-.439-.692a1.926 1.926 0 0 0-.703-.432c-.264-.13-.571-.173-.923-.173h-.483v4.321h.044Zm8.126-6.005h-2.02v7.69h2.02v-7.69Zm5.446 3.413h4.041c0 .389 0 .777-.044 1.123-.043.346-.087.648-.219.907-.132.39-.352.735-.571 1.08-.264.303-.527.563-.879.778-.351.217-.702.346-1.098.476-.395.13-.834.173-1.273.173-.615 0-1.142-.087-1.67-.303-.483-.216-.922-.475-1.273-.82a3.323 3.323 0 0 1-.835-1.297c-.219-.519-.307-1.037-.307-1.642s.088-1.167.307-1.642c.176-.518.483-.907.835-1.296a3.39 3.39 0 0 1 1.317-.821c.527-.216 1.098-.303 1.713-.303.835 0 1.538.173 2.153.519.615.345 1.098.864 1.449 1.599l-1.933.777c-.175-.432-.395-.734-.702-.907a1.906 1.906 0 0 0-.967-.26c-.307 0-.571.044-.834.173-.264.13-.439.26-.615.476a2.364 2.364 0 0 0-.395.734 3.406 3.406 0 0 0-.132.994c0 .346.044.648.132.908.087.259.219.518.395.734.176.216.395.346.659.475.263.13.571.173.878.173.22 0 .396-.043.571-.086a1.62 1.62 0 0 0 .483-.216c.132-.087.264-.216.352-.39.088-.172.175-.345.175-.56h-1.669v-1.556h-.044Zm7.336-3.413h-2.021v7.69h2.021v-7.69Zm4.612 1.727v5.963h-2.021v-5.962h-1.669v-1.729h5.359v1.729h-1.669Zm6.983 4.624h-2.898l-.484 1.34h-2.152l2.987-7.692h2.196l2.987 7.692h-2.152l-.484-1.34Zm-.527-1.512-.922-2.55-.922 2.55h1.844Zm6.062-4.839v6.005h2.459v1.685h-4.48v-7.69h2.021Zm11.815 6.351h-2.899l-.483 1.34h-2.152l2.987-7.692h2.196l2.987 7.692h-2.153l-.483-1.34Zm-.571-1.512-.922-2.55-.923 2.55h1.845Zm7.643-1.426h4.041c0 .389 0 .777-.044 1.123s-.088.648-.22.907c-.132.39-.351.735-.571 1.08-.263.303-.527.563-.878.778-.352.217-.703.346-1.098.476-.396.13-.835.173-1.274.173-.615 0-1.142-.087-1.669-.303-.483-.216-.923-.475-1.274-.82a3.334 3.334 0 0 1-.835-1.297c-.219-.519-.307-1.037-.307-1.642s.088-1.167.307-1.642c.176-.518.484-.907.835-1.296a3.394 3.394 0 0 1 1.318-.821c.527-.216 1.098-.303 1.713-.303.834 0 1.537.173 2.152.519.615.345 1.098.864 1.449 1.599l-1.932.777c-.176-.432-.396-.734-.703-.907a1.903 1.903 0 0 0-.966-.26c-.308 0-.571.044-.835.173a1.68 1.68 0 0 0-.615.476 2.385 2.385 0 0 0-.395.734 3.406 3.406 0 0 0-.132.994c0 .346.044.648.132.908.088.259.219.518.395.734.176.216.396.346.659.475.264.13.571.173.879.173.219 0 .395-.043.571-.086.175-.043.351-.13.483-.216.131-.087.263-.216.351-.39.088-.172.176-.345.176-.56h-1.669v-1.556h-.044Zm9.751-1.686h-2.416v1.254h2.284v1.685h-2.284v1.34h2.416v1.684h-4.437v-7.69h4.437v1.727Zm1.449 5.963v-7.69h2.021l3.777 4.709v-4.71h1.977v7.692h-1.977l-3.777-4.71v4.71h-2.021Zm15.154-5.098c-.483-.562-1.054-.865-1.757-.865-.308 0-.571.044-.835.173-.263.13-.483.26-.659.432-.175.173-.351.39-.439.648-.088.26-.176.52-.176.822 0 .302.044.605.176.864.088.259.264.475.439.691.176.173.396.346.659.432.264.13.527.173.835.173.659 0 1.23-.26 1.757-.821v2.377l-.22.086c-.307.13-.615.173-.878.26-.264.043-.527.086-.791.086a3.75 3.75 0 0 1-1.537-.303c-.483-.216-.923-.475-1.318-.864-.395-.346-.659-.778-.922-1.296a4.073 4.073 0 0 1-.352-1.642c0-.605.132-1.124.352-1.642.219-.476.527-.908.922-1.253.395-.346.791-.648 1.318-.821.483-.216 1.01-.303 1.581-.303.307 0 .615.043.922.087.308.043.615.172.967.302v2.377h-.044Zm3.162 1.426-2.855-4.019h2.46l1.449 2.117 1.406-2.117h2.416l-2.855 4.019v3.672H201.3v-3.672Z"/></g><defs><clipPath id="a"><path fill="#fff" d="M0 0h206v35H0z"/></clipPath><clipPath id="b"><path fill="#fff" transform="translate(18.8 1.21)" d="M0 0h25.036v23.765H0z"/></clipPath></defs></svg>