<svg width="1214" height="1978" fill="none" xmlns="http://www.w3.org/2000/svg"><path d="M1098.36 1751.87c-131.652-123.14-286.404-142.93-467.832-14.18-86.562 61.43-152.515 88.29-206.422 84.77-150.21-9.81-190.36-216.84-195.117-271.8-6.465-74.68 22.535-229.47 120.96-252.53 98.427-23.06 140.743 45.14 238.396 114.77 97.65 69.62 267.714 62.44 367.838 0 129.467-80.75 175.077-241.52 161.647-369.65-15.58-148.555-88.7-265.43-213.416-337.736-76.067-44.1-137.11-59.892-269.06-75.653-68.254-8.152-119.293-40.085-129.96-96.734-10.67-56.647 21.945-105.05 82.95-144.17 132.85-85.2 142.877-195.907 83.1-271.06C611.674 42.74 480.061 0 480.061 0h-29.872s183.45 57.402 216.016 157.527c32.566 100.125-77.854 181.676-160.804 166.426s-98.368-61.97-198.516-82.976c-100.15-21.008-336.033 39.41-303.903 275.78 19.505 143.485 143.22 211.446 277.51 217.923 134.288 6.476 249.027-58.773 362.33-65.383 92.396-5.39 148.824 22.702 176.427 41.45 67.027 45.523 115.78 140.232 78.38 235.3-27.502 69.903-105.653 110.043-181.958 102.223-54.85-5.62-116.236-33.74-177.09-93.165-123.013-120.13-386.017-114.754-485.004 123.545-21.08 50.74-34.722 112.05-37.99 184.96-5.373 119.93 31.245 295.85 140.278 437.71 109.033 141.85 251.308 148.09 292.14 146.63 66.113-2.37 113.067-32.06 177.415-64.62 104.09-52.67 260.983-25.13 279 141.33 2.008 18.54 1.938 36.78 0 54.36h308.87c-15.51-87.21-54.59-170.72-114.93-227.15Z" fill="#F5F5F7"/></svg>